Patient4_TMGait_0pt4_02_left_04_EMG.mot
version=1
nRows=20
nColumns=33
inDegrees=no
endheader
time	1LAddLong	2LGlutMax	3LGlutMed	4LIliopsoas	5LSemiMemb	6LBicFemLong	7LRecFem	8LVastMed	9LVastLat	10LGasMed	11LTibAnt	12lTibPost	13LPeroneusLong	14LSol	15LExtDigLong	16LFlexDigLong	17RAddLong	18RGlutMax	19RGlutMed	20RIliopsoas	21RSemiMemb	22RBicFemLong	23RRecFem	24RVastMed	25RVastLat	26RGasMed	27RTibAnt	28RTibPost	29RPeroneusLong	30RSol	31RExtDigLong	32RFlexDigLong
5.75	-0.051422	-0.1062	-0.13962	0.002594	-0.1683	0.26962	-0.39276	0.013428	-0.019073	-0.011139	-0.1088	-0.015411	0.086212	-0.18066	0.1236	-0.007629	-0.008087	0.69397	-0.1326	-0.021515	-0.027466	0.014954	0.20493	-0.028992	-0.013275	-0.005035	0.73395	-0.007782	-0.12329	-0.14252	-0.002136	-0.008545
5.751	0.007477	-0.034637	-0.083618	-0.002441	-0.13809	0.16571	-0.27817	0.010529	-0.19058	-0.005188	-0.12146	-0.015717	0.035706	-0.19028	-0.13214	-1.1349	0.027008	0.69275	-0.16159	0.022888	-0.019226	0.017548	0.23132	-0.015717	-0.014343	-0.001831	0.45761	-0.004272	-0.08667	-0.18875	-0.00351	-0.010681
5.752	0.034332	-0.10407	-0.097656	0.010376	0.059357	0.13794	-0.082703	0.006714	-0.15915	0.001526	-0.10956	-0.022125	0.001221	-0.13428	-0.16403	0.44571	-0.020447	0.61966	-0.12924	0.090637	-0.019836	0.018005	0.24338	0.000153	-0.020142	0.010834	-0.47653	-0.001526	0.031433	-0.24643	0.001068	-0.007629
5.753	0.036926	-0.054932	-0.15366	0.011444	0.055237	0.0737	-0.021515	-0.002899	-0.036011	-0.021362	-0.067291	-0.018005	0.01358	-0.1178	-0.12985	0.20294	-0.032043	0.61981	-0.15213	0.084991	-0.032349	0.001221	0.27283	-0.020752	-0.012665	0.007324	-0.40192	-0.002747	0.024872	-0.13077	-0.002289	-0.014038
5.754	0.0383	-0.049896	-0.1738	0.014038	0.077667	-0.007935	-0.11566	0.010834	-0.005798	-0.067139	-0.059509	-0.021515	0.033417	-0.091553	0.059662	-0.012054	-0.004578	0.70282	-0.18173	-0.082703	-0.03067	0.006561	0.2272	-0.041656	-0.006104	0.001526	-0.43945	-0.008392	-0.056915	-0.17334	-0.001221	-0.017853
5.755	0.032806	-0.049896	-0.38116	0.005493	0.086212	-0.2887	-0.21271	0.001068	0.008698	-0.063171	-0.006104	-0.020294	0.066071	-0.048981	0.14114	-0.019531	0.034027	0.73273	-0.23483	-0.25146	-0.038452	0.01236	0.21484	-0.007935	-0.013885	0.007629	-0.2832	-0.009308	-0.019836	-0.28122	-0.000305	-0.015564
5.756	0.026398	-0.03067	-0.24338	-0.009155	0.050049	-0.19669	-0.24872	0.006256	0.03067	-0.093994	0.045929	-0.021973	0.030823	-0.070496	0.10162	0.6044	0.082855	0.87936	-0.11246	-0.28931	-0.021362	0.023499	0.2449	-0.02533	-0.017548	0.00473	-0.13306	-0.00412	-0.002289	-0.39124	-0.002899	-0.011902
5.757	0.016174	-0.001984	0.04776	-0.03891	0.032349	-0.078583	-0.23392	-0.002441	0.008545	-0.10391	0.072632	-0.020447	-0.020447	-0.07431	0.077057	0.074005	0.096436	0.91904	-0.000153	-0.23514	-0.016632	0.018005	0.28214	-0.028687	-0.028229	0.006561	-0.3244	-0.002136	0.052338	-0.35202	0.000916	-0.013733
5.758	0.007629	0.047302	0.11108	-0.034637	0.006561	-0.1059	-0.16571	-0.002136	-0.076294	-0.084534	0.071106	-0.016785	-0.027618	-0.054016	0.12466	-0.024109	0.12573	0.93094	0.007324	-0.1294	0.000916	0.019226	0.24262	-0.027161	-0.014343	0.007172	-0.96298	-0.007019	0.13245	-0.24872	-0.001678	-0.009613
5.759	0.006256	0.10742	0.063324	-0.005188	0.002899	-0.063324	-0.18601	-0.00061	-0.061798	0.018005	0.004272	-0.020905	-0.056	-0.087891	0.15991	-0.016632	0.11459	0.9729	0.029907	0.02533	0.001221	0.016632	0.22964	0.028992	0.000305	0.01297	-0.90622	-0.00885	0.21271	-0.12573	-0.000916	-0.00946
5.76	0.014038	0.060577	0.010376	0.005188	0.020599	-0.033569	-0.26718	0.020142	-0.042572	0.060425	-0.035095	-0.016632	-0.084686	-0.081177	0.085144	-0.023651	0.078888	0.9993	0.10025	0.042725	-0.013275	0.012665	0.2388	0.071411	0.006104	0.024109	-0.92636	-0.004578	0.49561	-0.11322	-0.001831	-0.002899
5.761	0.012054	0.046844	0.11978	0.00946	0.013885	0.095062	-0.3186	0.020294	0.034485	0.092773	-0.010529	-0.012817	-0.079041	0.022278	0.29114	-0.92621	0.031738	1.0643	0.18753	0.033264	-0.009613	0.031128	0.27939	0.089874	0.013275	0.010223	-0.95917	-0.007172	0.42679	0.081482	-0.003815	-0.005341
5.762	0.004425	0.025024	0.059662	0.019989	-0.032043	0.27634	-0.29984	0.011902	0.070648	0.10284	-0.003357	-0.015106	-0.02121	0.098419	0.54886	0.16174	-0.007172	1.114	-0.010681	0.033112	0.006104	0.049744	0.23941	0.11337	0.015717	-0.001068	-0.3862	-0.013275	0.071411	0.2536	0	-0.009003
5.763	0.001984	0.010223	0.18967	0.010223	-0.074921	0.31448	-0.30655	-0.004883	0.11704	0.056	0.050507	-0.006561	0.026703	0.15076	-0.091705	0.40253	-0.0354	1.1687	-0.11475	0.06012	0.019073	0.061646	0.29007	0.1149	0.01358	-0.012665	0.02655	-0.007019	-0.008698	0.37598	-0.001373	-0.007324
5.764	-0.002289	0.052338	0.14313	0.002594	-0.090942	0.29297	-0.33844	-0.014801	0.057678	0.033417	0.19623	0.000458	-0.018158	0.15076	0.11185	-0.63873	-0.03891	1.2169	-0.20401	0.12192	0.028076	0.045471	0.31281	0.086212	0.008392	-0.011292	0.14282	-0.01709	-0.025482	0.37766	-0.003662	-0.010681
5.765	-0.002289	0.097046	-0.00946	0.007935	-0.10651	0.29098	-0.34943	-0.024261	0.006256	0.017395	0.087433	0.006866	-0.032806	0.15076	0.014496	0.47913	-0.040894	1.248	-0.094299	0.13565	0.02655	0.04837	0.31952	0.084229	0.020905	-0.012817	0.68802	-0.010681	-0.039825	0.30228	-0.000458	-0.010376
5.766	-0.014801	0.18158	-0.019226	0.007629	-0.037231	0.24399	-0.36514	-0.015564	-0.02121	-0.018311	-0.014038	0.006714	0.009155	0.10452	-0.16235	0.19791	-0.032349	1.3893	-0.015411	0.14694	0.013428	0.045013	0.32852	0.077667	0.007019	-0.013275	0.73822	-0.005646	-0.073547	0.16647	0	-0.013885
5.767	-0.024872	0.23148	-0.062561	0.011749	-0.036621	0.34592	-0.25635	-0.002747	0.033569	-0.052795	-0.008545	0.001678	0.038147	-0.03952	-0.34271	0.10407	-0.021057	1.4337	-0.07782	0.13748	0.00412	0.039978	0.37033	0.057678	-0.022736	-0.009003	0.71655	-0.008087	-0.038757	0.041046	0.000153	-0.00885
5.768	-0.025635	0.25559	-0.10544	0.006561	-0.082703	0.14816	-0.19974	0.016937	0.12985	-0.053406	-0.089111	-0.001831	0.08194	-0.13992	-0.27527	0.24536	0.003815	1.4189	-0.31006	0.13138	0.000305	0.009613	0.30823	-0.014496	-0.017853	-0.009918	0.085449	-0.001831	-0.047607	0.055389	0	-0.011444
5.769	-0.005188	0.31693	-0.17075	0.006104	-0.03952	-0.12589	-0.14832	0.027618	0.095673	-0.071564	-0.066071	-0.001221	0.056152	-0.23483	-0.18036	0.0383	-0.011749	1.4178	-0.29495	0.10895	-0.020752	0.023041	0.27664	-0.042267	-0.023346	-0.002441	-0.70862	-0.001068	-0.052032	0.059662	0.003815	-0.011902
